<svg xmlns="http://www.w3.org/2000/svg" viewBox="0 0 1000 900"><defs><linearGradient id="g" x2="0" y2="1"><stop stop-color="#1559a9"/><stop offset="1" stop-color="#072b66"/></linearGradient><linearGradient id="green" x2="0" y2="1"><stop stop-color="#2dff5f"/><stop offset="1" stop-color="#008b28"/></linearGradient></defs><rect width="1000" height="900" rx="30" fill="#03132f"/><text x="500" y="45" text-anchor="middle" font-family="Arial" font-size="26" font-weight="900" fill="white">SEQUENCE IQ — UI ASSET SHEET</text><g font-family="Arial" font-weight="900" fill="white" text-anchor="middle"><rect x="40" y="80" width="280" height="90" rx="45" fill="url(#green)" stroke="#74ff91" stroke-width="5"/><text x="180" y="138" font-size="34">▶ PLAY</text><rect x="360" y="80" width="280" height="90" rx="45" fill="url(#g)" stroke="#7eeaff" stroke-width="5"/><text x="500" y="138" font-size="30">NEXT LEVEL ›</text><rect x="680" y="80" width="280" height="90" rx="45" fill="url(#g)" stroke="#7eeaff" stroke-width="5"/><text x="820" y="138" font-size="30">↻ RETRY</text><rect x="40" y="200" width="280" height="90" rx="45" fill="#00b83f" stroke="#79ff9a" stroke-width="5"/><text x="180" y="258" font-size="32">EASY</text><rect x="360" y="200" width="280" height="90" rx="45" fill="#1267e8" stroke="#79dfff" stroke-width="5"/><text x="500" y="258" font-size="32">HARD</text><rect x="680" y="200" width="280" height="90" rx="45" fill="#8b20e8" stroke="#d176ff" stroke-width="5"/><text x="820" y="258" font-size="30">MASTER</text><circle cx="130" cy="390" r="55" fill="#b7194c" stroke="#ffb0bd" stroke-width="5"/><text x="130" y="412" font-size="58">♥</text><circle cx="280" cy="390" r="55" fill="#123e87" stroke="#7eeaff" stroke-width="5"/><text x="280" y="410" font-size="55" fill="#ffd52e">★</text><circle cx="430" cy="390" r="55" fill="#123e87" stroke="#7eeaff" stroke-width="5"/><text x="430" y="410" font-size="50">⚙</text><circle cx="580" cy="390" r="55" fill="#123e87" stroke="#7eeaff" stroke-width="5"/><text x="580" y="410" font-size="48" fill="#ffd52e">🏆</text><circle cx="730" cy="390" r="55" fill="#123e87" stroke="#7eeaff" stroke-width="5"/><text x="730" y="410" font-size="48" fill="#ffd52e">💡</text><rect x="40" y="490" width="920" height="160" rx="28" fill="#061b45" stroke="#66dcff" stroke-width="5"/><text x="500" y="545" font-size="24">QUESTION / DIALOG PANEL</text><rect x="80" y="565" width="840" height="48" rx="24" fill="#fff" opacity=".08"/><text x="500" y="740" font-size="18" fill="#aeeaff">Reusable visual components for Web • iOS • Android</text></g></svg>